<mxfile host="Electron" modified="2024-01-17T15:36:35.968Z" agent="Mozilla/5.0 (X11; Linux x86_64) AppleWebKit/537.36 (KHTML, like Gecko) draw.io/21.6.1 Chrome/112.0.5615.204 Electron/24.6.1 Safari/537.36" etag="Mxc0RFs1cRUQmAxflk_N" version="21.6.1" type="device">
  <diagram name="Page-1" id="OCD1pQ2lFyb5-pAs6mBr">
    <mxGraphModel dx="2105" dy="763" grid="1" gridSize="10" guides="1" tooltips="1" connect="1" arrows="1" fold="1" page="1" pageScale="1" pageWidth="850" pageHeight="1100" math="1" shadow="0">
      <root>
        <mxCell id="0" />
        <mxCell id="1" parent="0" />
        <mxCell id="6PfY78VA7HjRSBHSnq0Q-64" value="" style="endArrow=none;dashed=1;html=1;rounded=0;strokeColor=#660000;" edge="1" parent="1">
          <mxGeometry width="50" height="50" relative="1" as="geometry">
            <mxPoint x="389.75" y="510" as="sourcePoint" />
            <mxPoint x="389.75" y="47.5" as="targetPoint" />
          </mxGeometry>
        </mxCell>
        <mxCell id="6PfY78VA7HjRSBHSnq0Q-43" value="" style="endArrow=none;dashed=1;html=1;rounded=0;strokeColor=#660000;" edge="1" parent="1">
          <mxGeometry width="50" height="50" relative="1" as="geometry">
            <mxPoint x="435.75" y="510" as="sourcePoint" />
            <mxPoint x="435.75" y="47.5" as="targetPoint" />
          </mxGeometry>
        </mxCell>
        <mxCell id="6PfY78VA7HjRSBHSnq0Q-5" value="" style="rounded=0;whiteSpace=wrap;html=1;opacity=20;dashed=1;strokeColor=#000099;" vertex="1" parent="1">
          <mxGeometry x="350" y="58.5" width="280" height="101.5" as="geometry" />
        </mxCell>
        <mxCell id="up2wbToSJT_fbcNd9yz9-11" value="$$P_{0}$$" style="text;html=1;strokeColor=none;fillColor=none;align=center;verticalAlign=middle;whiteSpace=wrap;rounded=0;fontSize=14;" parent="1" vertex="1">
          <mxGeometry x="350" y="100" width="40" height="40" as="geometry" />
        </mxCell>
        <mxCell id="up2wbToSJT_fbcNd9yz9-13" value="15" style="rounded=0;whiteSpace=wrap;html=1;fillColor=#d5e8d4;strokeColor=#82b366;" parent="1" vertex="1">
          <mxGeometry x="390" y="110" width="20" height="30" as="geometry" />
        </mxCell>
        <mxCell id="up2wbToSJT_fbcNd9yz9-16" value="" style="endArrow=classic;html=1;rounded=0;" parent="1" edge="1">
          <mxGeometry width="50" height="50" relative="1" as="geometry">
            <mxPoint x="350" y="500" as="sourcePoint" />
            <mxPoint x="670" y="500" as="targetPoint" />
          </mxGeometry>
        </mxCell>
        <mxCell id="up2wbToSJT_fbcNd9yz9-17" value="execution progress (in ms)" style="text;html=1;strokeColor=none;fillColor=none;align=center;verticalAlign=middle;whiteSpace=wrap;rounded=0;fontStyle=2" parent="1" vertex="1">
          <mxGeometry x="505" y="500" width="150" height="20" as="geometry" />
        </mxCell>
        <mxCell id="up2wbToSJT_fbcNd9yz9-18" value="15" style="rounded=0;whiteSpace=wrap;html=1;fillColor=#d5e8d4;strokeColor=#82b366;" parent="1" vertex="1">
          <mxGeometry x="420" y="110" width="20" height="30" as="geometry" />
        </mxCell>
        <mxCell id="up2wbToSJT_fbcNd9yz9-40" value="asynchronously task migration" style="html=1;shadow=0;dashed=0;align=center;verticalAlign=middle;shape=mxgraph.arrows2.arrow;dy=0;dx=10;notch=0;fontColor=#660000;fontSize=11;" parent="1" vertex="1">
          <mxGeometry x="390" y="144" width="190" height="13" as="geometry" />
        </mxCell>
        <mxCell id="HVsNAYA5sDywjefQ6COs-3" value="" style="shape=curlyBracket;whiteSpace=wrap;html=1;rounded=1;labelPosition=left;verticalLabelPosition=middle;align=right;verticalAlign=middle;dashed=1;" parent="1" vertex="1">
          <mxGeometry x="-210" y="138" width="20" height="239.5" as="geometry" />
        </mxCell>
        <mxCell id="HVsNAYA5sDywjefQ6COs-5" value="" style="shape=curlyBracket;whiteSpace=wrap;html=1;rounded=1;flipH=1;labelPosition=right;verticalLabelPosition=middle;align=left;verticalAlign=middle;dashed=1;" parent="1" vertex="1">
          <mxGeometry x="-60" y="138.5" width="20" height="240" as="geometry" />
        </mxCell>
        <mxCell id="HVsNAYA5sDywjefQ6COs-6" value="Prior Knowledge based on Predicted&amp;nbsp;Load&amp;nbsp; Values" style="text;html=1;strokeColor=none;fillColor=none;align=center;verticalAlign=middle;whiteSpace=wrap;rounded=0;" parent="1" vertex="1">
          <mxGeometry x="-190" y="195.5" width="130" height="53" as="geometry" />
        </mxCell>
        <mxCell id="HVsNAYA5sDywjefQ6COs-7" value="Before A New Execution Phase starts" style="text;html=1;strokeColor=none;fillColor=none;align=center;verticalAlign=middle;whiteSpace=wrap;rounded=0;" parent="1" vertex="1">
          <mxGeometry x="-190" y="255.5" width="130" height="53" as="geometry" />
        </mxCell>
        <mxCell id="6PfY78VA7HjRSBHSnq0Q-1" value="" style="shape=cylinder3;whiteSpace=wrap;html=1;boundedLbl=1;backgroundOutline=1;size=15;rotation=90;opacity=40;" vertex="1" parent="1">
          <mxGeometry x="490" y="10" width="30" height="148.5" as="geometry" />
        </mxCell>
        <mxCell id="6PfY78VA7HjRSBHSnq0Q-2" value="Queue \(P_{0}\)" style="text;html=1;strokeColor=none;fillColor=none;align=center;verticalAlign=middle;whiteSpace=wrap;rounded=0;fontSize=10;" vertex="1" parent="1">
          <mxGeometry x="381.25" y="70.75" width="50" height="27" as="geometry" />
        </mxCell>
        <mxCell id="6PfY78VA7HjRSBHSnq0Q-3" value="&lt;font style=&quot;font-size: 10px;&quot;&gt;15&lt;/font&gt;" style="ellipse;whiteSpace=wrap;html=1;aspect=fixed;fillColor=#f5f5f5;fontColor=#333333;strokeColor=#666666;align=center;verticalAlign=middle;" vertex="1" parent="1">
          <mxGeometry x="440" y="74.25" width="20" height="20" as="geometry" />
        </mxCell>
        <mxCell id="6PfY78VA7HjRSBHSnq0Q-6" value="&lt;font style=&quot;font-size: 10px;&quot;&gt;15&lt;/font&gt;" style="ellipse;whiteSpace=wrap;html=1;aspect=fixed;fillColor=#f5f5f5;fontColor=#333333;strokeColor=#666666;align=center;verticalAlign=middle;" vertex="1" parent="1">
          <mxGeometry x="465" y="74.25" width="20" height="20" as="geometry" />
        </mxCell>
        <mxCell id="6PfY78VA7HjRSBHSnq0Q-7" value="&lt;font style=&quot;font-size: 10px;&quot;&gt;15&lt;/font&gt;" style="ellipse;whiteSpace=wrap;html=1;aspect=fixed;fillColor=#f5f5f5;fontColor=#333333;strokeColor=#666666;align=center;verticalAlign=middle;" vertex="1" parent="1">
          <mxGeometry x="490" y="74.25" width="20" height="20" as="geometry" />
        </mxCell>
        <mxCell id="6PfY78VA7HjRSBHSnq0Q-9" value="" style="rounded=0;whiteSpace=wrap;html=1;opacity=20;dashed=1;strokeColor=#000099;" vertex="1" parent="1">
          <mxGeometry x="350" y="168.5" width="280" height="101.5" as="geometry" />
        </mxCell>
        <mxCell id="6PfY78VA7HjRSBHSnq0Q-10" value="$$P_{1}$$" style="text;html=1;strokeColor=none;fillColor=none;align=center;verticalAlign=middle;whiteSpace=wrap;rounded=0;fontSize=14;" vertex="1" parent="1">
          <mxGeometry x="350" y="210" width="40" height="40" as="geometry" />
        </mxCell>
        <mxCell id="6PfY78VA7HjRSBHSnq0Q-13" value="asynchronously task migration" style="html=1;shadow=0;dashed=0;align=center;verticalAlign=middle;shape=mxgraph.arrows2.arrow;dy=0;dx=10;notch=0;fontColor=#660000;fontSize=11;" vertex="1" parent="1">
          <mxGeometry x="390" y="254" width="190" height="13" as="geometry" />
        </mxCell>
        <mxCell id="6PfY78VA7HjRSBHSnq0Q-14" value="" style="shape=cylinder3;whiteSpace=wrap;html=1;boundedLbl=1;backgroundOutline=1;size=15;rotation=90;opacity=40;" vertex="1" parent="1">
          <mxGeometry x="490" y="120" width="30" height="148.5" as="geometry" />
        </mxCell>
        <mxCell id="6PfY78VA7HjRSBHSnq0Q-15" value="Queue \(P_{1}\)" style="text;html=1;strokeColor=none;fillColor=none;align=center;verticalAlign=middle;whiteSpace=wrap;rounded=0;fontSize=10;" vertex="1" parent="1">
          <mxGeometry x="381.25" y="180.75" width="50" height="27" as="geometry" />
        </mxCell>
        <mxCell id="6PfY78VA7HjRSBHSnq0Q-16" value="&lt;font style=&quot;font-size: 10px;&quot;&gt;38&lt;/font&gt;" style="ellipse;whiteSpace=wrap;html=1;aspect=fixed;fillColor=#f5f5f5;fontColor=#333333;strokeColor=#666666;align=center;verticalAlign=middle;" vertex="1" parent="1">
          <mxGeometry x="440" y="184.25" width="20" height="20" as="geometry" />
        </mxCell>
        <mxCell id="6PfY78VA7HjRSBHSnq0Q-17" value="&lt;font style=&quot;font-size: 10px;&quot;&gt;38&lt;/font&gt;" style="ellipse;whiteSpace=wrap;html=1;aspect=fixed;fillColor=#f5f5f5;fontColor=#333333;strokeColor=#666666;align=center;verticalAlign=middle;" vertex="1" parent="1">
          <mxGeometry x="465" y="184.25" width="20" height="20" as="geometry" />
        </mxCell>
        <mxCell id="6PfY78VA7HjRSBHSnq0Q-18" value="&lt;font style=&quot;font-size: 10px;&quot;&gt;38&lt;/font&gt;" style="ellipse;whiteSpace=wrap;html=1;aspect=fixed;fillColor=#f5f5f5;fontColor=#333333;strokeColor=#666666;align=center;verticalAlign=middle;" vertex="1" parent="1">
          <mxGeometry x="490" y="184.25" width="20" height="20" as="geometry" />
        </mxCell>
        <mxCell id="6PfY78VA7HjRSBHSnq0Q-19" value="38" style="rounded=0;whiteSpace=wrap;html=1;fillColor=#d5e8d4;strokeColor=#82b366;" vertex="1" parent="1">
          <mxGeometry x="390" y="215" width="50" height="30" as="geometry" />
        </mxCell>
        <mxCell id="6PfY78VA7HjRSBHSnq0Q-20" value="&lt;font style=&quot;font-size: 10px;&quot;&gt;38&lt;/font&gt;" style="ellipse;whiteSpace=wrap;html=1;aspect=fixed;fillColor=#f5f5f5;fontColor=#333333;strokeColor=#666666;align=center;verticalAlign=middle;" vertex="1" parent="1">
          <mxGeometry x="515" y="184.25" width="20" height="20" as="geometry" />
        </mxCell>
        <mxCell id="6PfY78VA7HjRSBHSnq0Q-21" value="" style="rounded=0;whiteSpace=wrap;html=1;opacity=20;dashed=1;strokeColor=#000099;" vertex="1" parent="1">
          <mxGeometry x="350" y="278.5" width="280" height="101.5" as="geometry" />
        </mxCell>
        <mxCell id="6PfY78VA7HjRSBHSnq0Q-22" value="$$P_{2}$$" style="text;html=1;strokeColor=none;fillColor=none;align=center;verticalAlign=middle;whiteSpace=wrap;rounded=0;fontSize=14;" vertex="1" parent="1">
          <mxGeometry x="350" y="320" width="40" height="40" as="geometry" />
        </mxCell>
        <mxCell id="6PfY78VA7HjRSBHSnq0Q-23" value="asynchronously task migration" style="html=1;shadow=0;dashed=0;align=center;verticalAlign=middle;shape=mxgraph.arrows2.arrow;dy=0;dx=10;notch=0;fontColor=#660000;fontSize=11;" vertex="1" parent="1">
          <mxGeometry x="390" y="364" width="190" height="13" as="geometry" />
        </mxCell>
        <mxCell id="6PfY78VA7HjRSBHSnq0Q-24" value="" style="shape=cylinder3;whiteSpace=wrap;html=1;boundedLbl=1;backgroundOutline=1;size=15;rotation=90;opacity=40;" vertex="1" parent="1">
          <mxGeometry x="490" y="230" width="30" height="148.5" as="geometry" />
        </mxCell>
        <mxCell id="6PfY78VA7HjRSBHSnq0Q-25" value="Queue \(P_{2}\)" style="text;html=1;strokeColor=none;fillColor=none;align=center;verticalAlign=middle;whiteSpace=wrap;rounded=0;fontSize=10;" vertex="1" parent="1">
          <mxGeometry x="381.25" y="290.75" width="50" height="27" as="geometry" />
        </mxCell>
        <mxCell id="6PfY78VA7HjRSBHSnq0Q-26" value="&lt;font style=&quot;font-size: 10px;&quot;&gt;66&lt;/font&gt;" style="ellipse;whiteSpace=wrap;html=1;aspect=fixed;fillColor=#f5f5f5;fontColor=#333333;strokeColor=#666666;align=center;verticalAlign=middle;" vertex="1" parent="1">
          <mxGeometry x="440" y="294.25" width="20" height="20" as="geometry" />
        </mxCell>
        <mxCell id="6PfY78VA7HjRSBHSnq0Q-27" value="&lt;font style=&quot;font-size: 10px;&quot;&gt;66&lt;/font&gt;" style="ellipse;whiteSpace=wrap;html=1;aspect=fixed;fillColor=#f5f5f5;fontColor=#333333;strokeColor=#666666;align=center;verticalAlign=middle;" vertex="1" parent="1">
          <mxGeometry x="465" y="294.25" width="20" height="20" as="geometry" />
        </mxCell>
        <mxCell id="6PfY78VA7HjRSBHSnq0Q-28" value="&lt;font style=&quot;font-size: 10px;&quot;&gt;66&lt;/font&gt;" style="ellipse;whiteSpace=wrap;html=1;aspect=fixed;fillColor=#f5f5f5;fontColor=#333333;strokeColor=#666666;align=center;verticalAlign=middle;" vertex="1" parent="1">
          <mxGeometry x="490" y="294.25" width="20" height="20" as="geometry" />
        </mxCell>
        <mxCell id="6PfY78VA7HjRSBHSnq0Q-30" value="&lt;font style=&quot;font-size: 10px;&quot;&gt;66&lt;/font&gt;" style="ellipse;whiteSpace=wrap;html=1;aspect=fixed;fillColor=#f5f5f5;fontColor=#333333;strokeColor=#666666;align=center;verticalAlign=middle;" vertex="1" parent="1">
          <mxGeometry x="515" y="294.25" width="20" height="20" as="geometry" />
        </mxCell>
        <mxCell id="6PfY78VA7HjRSBHSnq0Q-31" value="66" style="rounded=0;whiteSpace=wrap;html=1;fillColor=#d5e8d4;strokeColor=#82b366;" vertex="1" parent="1">
          <mxGeometry x="390" y="325" width="86.5" height="30" as="geometry" />
        </mxCell>
        <mxCell id="6PfY78VA7HjRSBHSnq0Q-32" value="" style="rounded=0;whiteSpace=wrap;html=1;opacity=20;dashed=1;strokeColor=#000099;" vertex="1" parent="1">
          <mxGeometry x="350" y="388.5" width="280" height="101.5" as="geometry" />
        </mxCell>
        <mxCell id="6PfY78VA7HjRSBHSnq0Q-33" value="$$P_{3}$$" style="text;html=1;strokeColor=none;fillColor=none;align=center;verticalAlign=middle;whiteSpace=wrap;rounded=0;fontSize=14;" vertex="1" parent="1">
          <mxGeometry x="350" y="430" width="40" height="40" as="geometry" />
        </mxCell>
        <mxCell id="6PfY78VA7HjRSBHSnq0Q-34" value="asynchronously task migration" style="html=1;shadow=0;dashed=0;align=center;verticalAlign=middle;shape=mxgraph.arrows2.arrow;dy=0;dx=10;notch=0;fontColor=#660000;fontSize=11;" vertex="1" parent="1">
          <mxGeometry x="390" y="474" width="190" height="13" as="geometry" />
        </mxCell>
        <mxCell id="6PfY78VA7HjRSBHSnq0Q-35" value="" style="shape=cylinder3;whiteSpace=wrap;html=1;boundedLbl=1;backgroundOutline=1;size=15;rotation=90;opacity=40;" vertex="1" parent="1">
          <mxGeometry x="490" y="340" width="30" height="148.5" as="geometry" />
        </mxCell>
        <mxCell id="6PfY78VA7HjRSBHSnq0Q-36" value="Queue \(P_{3}\)" style="text;html=1;strokeColor=none;fillColor=none;align=center;verticalAlign=middle;whiteSpace=wrap;rounded=0;fontSize=10;" vertex="1" parent="1">
          <mxGeometry x="381.25" y="400.75" width="50" height="27" as="geometry" />
        </mxCell>
        <mxCell id="6PfY78VA7HjRSBHSnq0Q-37" value="&lt;font style=&quot;font-size: 10px;&quot;&gt;67&lt;/font&gt;" style="ellipse;whiteSpace=wrap;html=1;aspect=fixed;fillColor=#f5f5f5;fontColor=#333333;strokeColor=#666666;align=center;verticalAlign=middle;" vertex="1" parent="1">
          <mxGeometry x="440" y="404.25" width="20" height="20" as="geometry" />
        </mxCell>
        <mxCell id="6PfY78VA7HjRSBHSnq0Q-38" value="&lt;font style=&quot;font-size: 10px;&quot;&gt;67&lt;/font&gt;" style="ellipse;whiteSpace=wrap;html=1;aspect=fixed;fillColor=#f5f5f5;fontColor=#333333;strokeColor=#666666;align=center;verticalAlign=middle;" vertex="1" parent="1">
          <mxGeometry x="465" y="404.25" width="20" height="20" as="geometry" />
        </mxCell>
        <mxCell id="6PfY78VA7HjRSBHSnq0Q-39" value="&lt;font style=&quot;font-size: 10px;&quot;&gt;67&lt;/font&gt;" style="ellipse;whiteSpace=wrap;html=1;aspect=fixed;fillColor=#f5f5f5;fontColor=#333333;strokeColor=#666666;align=center;verticalAlign=middle;" vertex="1" parent="1">
          <mxGeometry x="490" y="404.25" width="20" height="20" as="geometry" />
        </mxCell>
        <mxCell id="6PfY78VA7HjRSBHSnq0Q-40" value="&lt;font style=&quot;font-size: 10px;&quot;&gt;67&lt;/font&gt;" style="ellipse;whiteSpace=wrap;html=1;aspect=fixed;fillColor=#f5f5f5;fontColor=#333333;strokeColor=#666666;align=center;verticalAlign=middle;" vertex="1" parent="1">
          <mxGeometry x="515" y="404.25" width="20" height="20" as="geometry" />
        </mxCell>
        <mxCell id="6PfY78VA7HjRSBHSnq0Q-42" value="67" style="rounded=0;whiteSpace=wrap;html=1;fillColor=#d5e8d4;strokeColor=#82b366;" vertex="1" parent="1">
          <mxGeometry x="390" y="435" width="90" height="30" as="geometry" />
        </mxCell>
        <mxCell id="6PfY78VA7HjRSBHSnq0Q-44" value="\(t_{1}\)" style="text;html=1;strokeColor=none;fillColor=none;align=center;verticalAlign=middle;whiteSpace=wrap;rounded=0;fontStyle=2" vertex="1" parent="1">
          <mxGeometry x="420" y="500" width="20" height="20" as="geometry" />
        </mxCell>
        <mxCell id="6PfY78VA7HjRSBHSnq0Q-45" value="\(t_{0}\)" style="text;html=1;strokeColor=none;fillColor=none;align=center;verticalAlign=middle;whiteSpace=wrap;rounded=0;fontStyle=2" vertex="1" parent="1">
          <mxGeometry x="373" y="500" width="20" height="20" as="geometry" />
        </mxCell>
        <mxCell id="6PfY78VA7HjRSBHSnq0Q-46" value="&lt;b&gt;Gather Predicted Load Values&lt;/b&gt;" style="rounded=1;whiteSpace=wrap;html=1;fillColor=#dae8fc;strokeColor=#6c8ebf;" vertex="1" parent="1">
          <mxGeometry x="-23" y="192.25" width="110" height="160.25" as="geometry" />
        </mxCell>
        <mxCell id="6PfY78VA7HjRSBHSnq0Q-47" value="&lt;b&gt;Load Rebalancing Algorithms/Solvers&lt;/b&gt;&lt;br&gt;&lt;br&gt;&lt;div style=&quot;text-align: left;&quot;&gt;&amp;nbsp; + Proactive Offloading&lt;/div&gt;&lt;div style=&quot;text-align: left;&quot;&gt;&amp;nbsp; + Number Partitioning&lt;/div&gt;&lt;div style=&quot;text-align: left;&quot;&gt;&amp;nbsp; + Knapsack&lt;/div&gt;&lt;div style=&quot;text-align: left;&quot;&gt;&amp;nbsp; + Dwave-solver&lt;/div&gt;&lt;div style=&quot;text-align: left;&quot;&gt;&amp;nbsp; + QAOA&lt;/div&gt;&lt;div style=&quot;text-align: left;&quot;&gt;&amp;nbsp; + ...&amp;nbsp;&lt;/div&gt;" style="rounded=1;whiteSpace=wrap;html=1;fillColor=#e1d5e7;strokeColor=#9673a6;horizontal=1;verticalAlign=top;" vertex="1" parent="1">
          <mxGeometry x="110" y="197.25" width="140" height="150.25" as="geometry" />
        </mxCell>
        <mxCell id="6PfY78VA7HjRSBHSnq0Q-50" value="" style="endArrow=classic;html=1;rounded=0;exitX=1;exitY=0.5;exitDx=0;exitDy=0;entryX=0;entryY=0.5;entryDx=0;entryDy=0;" edge="1" parent="1" source="6PfY78VA7HjRSBHSnq0Q-47" target="up2wbToSJT_fbcNd9yz9-11">
          <mxGeometry width="50" height="50" relative="1" as="geometry">
            <mxPoint x="380" y="267.5" as="sourcePoint" />
            <mxPoint x="430" y="217.5" as="targetPoint" />
          </mxGeometry>
        </mxCell>
        <mxCell id="6PfY78VA7HjRSBHSnq0Q-58" value="guide task &lt;br&gt;migration" style="edgeLabel;html=1;align=center;verticalAlign=middle;resizable=0;points=[];" vertex="1" connectable="0" parent="6PfY78VA7HjRSBHSnq0Q-50">
          <mxGeometry x="0.0382" y="1" relative="1" as="geometry">
            <mxPoint x="1" as="offset" />
          </mxGeometry>
        </mxCell>
        <mxCell id="6PfY78VA7HjRSBHSnq0Q-51" value="" style="endArrow=classic;html=1;rounded=0;exitX=1;exitY=0.5;exitDx=0;exitDy=0;entryX=0;entryY=0.5;entryDx=0;entryDy=0;" edge="1" parent="1" source="6PfY78VA7HjRSBHSnq0Q-47" target="6PfY78VA7HjRSBHSnq0Q-10">
          <mxGeometry width="50" height="50" relative="1" as="geometry">
            <mxPoint x="280" y="282.5" as="sourcePoint" />
            <mxPoint x="360" y="130.5" as="targetPoint" />
          </mxGeometry>
        </mxCell>
        <mxCell id="6PfY78VA7HjRSBHSnq0Q-62" value="guide task&lt;br style=&quot;border-color: var(--border-color);&quot;&gt;migration" style="edgeLabel;html=1;align=center;verticalAlign=middle;resizable=0;points=[];" vertex="1" connectable="0" parent="6PfY78VA7HjRSBHSnq0Q-51">
          <mxGeometry x="-0.0176" y="1" relative="1" as="geometry">
            <mxPoint x="1" as="offset" />
          </mxGeometry>
        </mxCell>
        <mxCell id="6PfY78VA7HjRSBHSnq0Q-52" value="" style="endArrow=classic;html=1;rounded=0;exitX=1;exitY=0.5;exitDx=0;exitDy=0;entryX=0;entryY=0.5;entryDx=0;entryDy=0;" edge="1" parent="1" source="6PfY78VA7HjRSBHSnq0Q-47" target="6PfY78VA7HjRSBHSnq0Q-22">
          <mxGeometry width="50" height="50" relative="1" as="geometry">
            <mxPoint x="280" y="282.5" as="sourcePoint" />
            <mxPoint x="360" y="240.5" as="targetPoint" />
          </mxGeometry>
        </mxCell>
        <mxCell id="6PfY78VA7HjRSBHSnq0Q-61" value="guide task&lt;br style=&quot;border-color: var(--border-color);&quot;&gt;migration" style="edgeLabel;html=1;align=center;verticalAlign=middle;resizable=0;points=[];" vertex="1" connectable="0" parent="6PfY78VA7HjRSBHSnq0Q-52">
          <mxGeometry x="-0.1122" y="-1" relative="1" as="geometry">
            <mxPoint x="1" as="offset" />
          </mxGeometry>
        </mxCell>
        <mxCell id="6PfY78VA7HjRSBHSnq0Q-53" value="" style="endArrow=classic;html=1;rounded=0;exitX=1;exitY=0.5;exitDx=0;exitDy=0;entryX=0;entryY=0.5;entryDx=0;entryDy=0;" edge="1" parent="1" source="6PfY78VA7HjRSBHSnq0Q-47" target="6PfY78VA7HjRSBHSnq0Q-33">
          <mxGeometry width="50" height="50" relative="1" as="geometry">
            <mxPoint x="280" y="282.5" as="sourcePoint" />
            <mxPoint x="360" y="350.5" as="targetPoint" />
          </mxGeometry>
        </mxCell>
        <mxCell id="6PfY78VA7HjRSBHSnq0Q-60" value="guide task&lt;br style=&quot;border-color: var(--border-color);&quot;&gt;migration" style="edgeLabel;html=1;align=center;verticalAlign=middle;resizable=0;points=[];" vertex="1" connectable="0" parent="6PfY78VA7HjRSBHSnq0Q-53">
          <mxGeometry x="0.0076" relative="1" as="geometry">
            <mxPoint as="offset" />
          </mxGeometry>
        </mxCell>
        <mxCell id="6PfY78VA7HjRSBHSnq0Q-54" value="" style="shape=curlyBracket;whiteSpace=wrap;html=1;rounded=1;labelPosition=left;verticalLabelPosition=middle;align=right;verticalAlign=middle;dashed=1;" vertex="1" parent="1">
          <mxGeometry x="650" y="177.75" width="20" height="160" as="geometry" />
        </mxCell>
        <mxCell id="6PfY78VA7HjRSBHSnq0Q-55" value="" style="shape=curlyBracket;whiteSpace=wrap;html=1;rounded=1;flipH=1;labelPosition=right;verticalLabelPosition=middle;align=left;verticalAlign=middle;dashed=1;" vertex="1" parent="1">
          <mxGeometry x="750" y="178.5" width="20" height="160" as="geometry" />
        </mxCell>
        <mxCell id="6PfY78VA7HjRSBHSnq0Q-56" value="Next Execution Phases" style="text;html=1;strokeColor=none;fillColor=none;align=center;verticalAlign=middle;whiteSpace=wrap;rounded=0;fontStyle=1" vertex="1" parent="1">
          <mxGeometry x="666" y="230" width="90" height="53" as="geometry" />
        </mxCell>
        <mxCell id="6PfY78VA7HjRSBHSnq0Q-57" value="New Execution Phase" style="text;html=1;strokeColor=none;fillColor=none;align=center;verticalAlign=middle;whiteSpace=wrap;rounded=0;fontStyle=1" vertex="1" parent="1">
          <mxGeometry x="410" y="17.5" width="130" height="27.5" as="geometry" />
        </mxCell>
        <mxCell id="6PfY78VA7HjRSBHSnq0Q-63" value="" style="endArrow=classic;html=1;rounded=0;exitX=1;exitY=0.5;exitDx=0;exitDy=0;entryX=0;entryY=0.5;entryDx=0;entryDy=0;" edge="1" parent="1" source="6PfY78VA7HjRSBHSnq0Q-46" target="6PfY78VA7HjRSBHSnq0Q-47">
          <mxGeometry width="50" height="50" relative="1" as="geometry">
            <mxPoint x="410" y="400" as="sourcePoint" />
            <mxPoint x="460" y="350" as="targetPoint" />
          </mxGeometry>
        </mxCell>
      </root>
    </mxGraphModel>
  </diagram>
</mxfile>
